<?xml version="1.0" encoding="UTF-8" standalone="no"?>
<!DOCTYPE svg PUBLIC "-//W3C//DTD SVG 1.1//EN" "http://www.w3.org/Graphics/SVG/1.1/DTD/svg11.dtd">
<svg width="100%" height="100%" viewBox="0 0 240 84" version="1.1" xmlns="http://www.w3.org/2000/svg" xmlns:xlink="http://www.w3.org/1999/xlink" xml:space="preserve" xmlns:serif="http://www.serif.com/" style="fill-rule:evenodd;clip-rule:evenodd;stroke-linejoin:round;stroke-miterlimit:2;">
    <g transform="matrix(0.620644,0,0,0.620644,-5.76807,-41.2265)">
        <path d="M54.012,136.536L54.012,162.1L40.846,162.1L40.846,117.933L54.012,117.933L54.012,122.277C56.966,119.6 61.718,117.442 67.604,117.442C74.26,117.442 86.212,120.296 86.212,136L86.212,162.1L73.046,162.1L73.046,136C73.046,132.194 70.1,127.865 64.911,127.865C55.462,127.865 54.012,136.536 54.012,136.536ZM99.012,127.6L92.796,127.6L92.796,117.933L99.012,117.933L99.012,108.267L112.179,108.267L112.179,117.933L123.596,117.933L123.596,127.6L112.179,127.6L112.179,146.767C112.179,149.661 112.355,152.935 116.81,152.935C121.264,152.935 122.544,151.552 122.544,151.552L126.538,159.744C126.538,159.744 122.032,162.1 113.533,162.1C101.194,162.1 99.012,154.317 99.012,146.767L99.012,127.6ZM378.279,136C378.279,132.879 376.889,126.833 367.993,126.833C359.097,126.833 355.449,131.505 355.449,131.505L350.585,123.791C350.585,123.791 355.257,116.977 370.425,116.977C389.945,116.977 391.446,132.081 391.446,136L391.446,162.1L378.279,162.1L378.279,157.962C375.74,160.019 371.722,162.1 364.696,162.1C353.696,162.1 348.821,154.625 348.821,149.05C348.821,143.475 352.946,139.75 357.071,137.625C361.196,135.5 368.821,136 378.279,136ZM378.279,148.218L378.279,143.488C375.537,143.317 371.843,143.125 369.071,143.125C364.071,143.125 361.254,145.631 361.254,148.006C361.254,150.381 361.765,153 368.071,153C374.377,153 376.376,150.21 378.279,148.218ZM255.246,140.017L255.246,162.1L242.079,162.1L242.079,117.933L255.246,117.933L255.246,121.401C257.74,119.531 261.11,117.933 264.365,117.933L269.199,117.933L269.199,129.117L264.365,129.117C260.597,129.117 255.246,132.366 255.246,140.017ZM217.679,154.7L217.679,153.937C213.822,157.648 208.581,159.931 202.812,159.931C190.973,159.931 181.361,150.319 181.361,138.48C181.361,126.641 190.973,117.029 202.812,117.029C208.581,117.029 213.822,119.312 217.679,123.023L217.679,117.933L230.846,117.933L230.846,154.7C230.846,159.226 229.245,179 206.141,179C188.093,179 183.549,172.584 183.549,172.584L188.605,163.432C188.605,163.432 193.853,168.816 206.077,168.816C216.893,168.816 217.679,159.114 217.679,154.7ZM217.679,134.255C215.941,129.379 211.281,125.885 205.812,125.885C198.86,125.885 193.217,131.529 193.217,138.48C193.217,145.431 198.86,151.075 205.812,151.075C211.281,151.075 215.941,147.581 217.679,142.705L217.679,134.255ZM141.673,143.184C142.71,147.846 145.742,152.642 153.949,152.642C163.781,152.642 165.885,148.007 165.885,148.007L172.477,155.367C172.477,155.367 170.557,162.1 154.557,162.1C138.557,162.1 129.469,154.536 129.469,139.592C129.469,124.648 139.645,117.416 153.949,117.416C168.253,117.416 175.229,128.792 175.229,136L175.229,143.184L141.673,143.184ZM163.951,136C163.327,132.125 161.079,126.504 153.277,126.504C146.456,126.504 142.317,130.709 141.383,136L163.951,136ZM28.012,104.1L28.012,162.1L14.846,162.1L14.846,104.1L28.012,104.1ZM290.346,117.933L290.346,162.1L277.179,162.1L277.179,117.933L290.346,117.933ZM340.179,97.933L340.179,162.1L327.012,162.1L327.012,117.933L340.179,97.933ZM315.379,97.933L315.379,162.1L302.212,162.1L302.212,117.933L315.379,97.933ZM283.821,97.125C288.029,97.125 291.446,100.542 291.446,104.75C291.446,108.958 288.029,112.375 283.821,112.375C279.612,112.375 276.196,108.958 276.196,104.75C276.196,100.542 279.612,97.125 283.821,97.125Z" style="fill:rgb(110,124,139);"/>
    </g>
</svg>
